<mxfile host="65bd71144e">
    <diagram id="KSqNKAdo9fn-KCbD-LpC" name="Page-1">
        <mxGraphModel dx="1830" dy="378" grid="1" gridSize="10" guides="1" tooltips="1" connect="1" arrows="1" fold="1" page="1" pageScale="1" pageWidth="1100" pageHeight="850" math="0" shadow="0">
            <root>
                <mxCell id="0"/>
                <mxCell id="1" parent="0"/>
                <mxCell id="sw7YXdpIW-NHetmkRuGA-1" value="&lt;font&gt;&amp;nbsp; &amp;nbsp;&lt;font style=&quot;font-size: 14px&quot;&gt;Edge Node Components&lt;/font&gt;&lt;/font&gt;" style="rounded=0;whiteSpace=wrap;html=1;align=left;verticalAlign=top;fontFamily=IntelOne Text;fontColor=#FFFFFF;strokeColor=#FFFFFF;" parent="1" vertex="1">
                    <mxGeometry x="-400" y="110" width="980" height="440" as="geometry"/>
                </mxCell>
                <mxCell id="sw7YXdpIW-NHetmkRuGA-2" value="&lt;font&gt;&amp;nbsp;&lt;br&gt;Harbor registry&lt;br&gt;Container registry Helm Charts repo&lt;/font&gt;" style="shape=cylinder3;whiteSpace=wrap;html=1;boundedLbl=1;backgroundOutline=1;size=15;align=center;fontFamily=IntelOne Text;fillColor=#00285A;fontColor=#FFFFFF;strokeColor=#FFFFFF;" parent="1" vertex="1">
                    <mxGeometry x="-380" y="160" width="120" height="117" as="geometry"/>
                </mxCell>
                <mxCell id="sw7YXdpIW-NHetmkRuGA-3" value="Ubuntu 20.04 LTS: Default the latest kernel, Ansible, Python, system services to manage attestation, systemd, docker,&amp;nbsp;" style="rounded=1;whiteSpace=wrap;html=1;align=center;fontFamily=IntelOne Text;fillColor=#E96115;arcSize=17;fontColor=#FFFFFF;strokeColor=#FFFFFF;" parent="1" vertex="1">
                    <mxGeometry x="-380" y="495" width="940" height="33" as="geometry"/>
                </mxCell>
                <mxCell id="sw7YXdpIW-NHetmkRuGA-4" value="SR-IOV Network Operator: SR-IOV device plugin" style="rounded=1;whiteSpace=wrap;html=1;align=left;fontFamily=IntelOne Text;spacingLeft=7;fillColor=#00285A;fontColor=#FFFFFF;strokeColor=#FFFFFF;" parent="1" vertex="1">
                    <mxGeometry x="-240" y="445" width="800" height="37" as="geometry"/>
                </mxCell>
                <mxCell id="sw7YXdpIW-NHetmkRuGA-5" value="NFD: node labelling support" style="rounded=1;whiteSpace=wrap;html=1;align=center;fontFamily=IntelOne Text;fillColor=#00285A;fontColor=#FFFFFF;strokeColor=#FFFFFF;" parent="1" vertex="1">
                    <mxGeometry x="-240" y="305" width="800" height="30" as="geometry"/>
                </mxCell>
                <mxCell id="sw7YXdpIW-NHetmkRuGA-6" value="Calico: default CNI" style="rounded=1;whiteSpace=wrap;html=1;align=center;fontFamily=IntelOne Text;fillColor=#00285A;fontColor=#FFFFFF;strokeColor=#FFFFFF;" parent="1" vertex="1">
                    <mxGeometry x="-240" y="395" width="800" height="30" as="geometry"/>
                </mxCell>
                <mxCell id="sw7YXdpIW-NHetmkRuGA-7" value="Multus: multiple network interface support" style="rounded=1;whiteSpace=wrap;html=1;align=center;fontFamily=IntelOne Text;fillColor=#00285A;fontColor=#FFFFFF;strokeColor=#FFFFFF;" parent="1" vertex="1">
                    <mxGeometry x="-240" y="350" width="800" height="30" as="geometry"/>
                </mxCell>
                <mxCell id="sw7YXdpIW-NHetmkRuGA-8" value="Telegraf: telemetry collector" style="rounded=1;whiteSpace=wrap;html=1;align=center;fontFamily=IntelOne Text;fillColor=#00285A;fontColor=#FFFFFF;strokeColor=#FFFFFF;" parent="1" vertex="1">
                    <mxGeometry x="-240" y="213" width="255" height="33" as="geometry"/>
                </mxCell>
                <mxCell id="sw7YXdpIW-NHetmkRuGA-9" value="SR-IOV CNI: CNI for SR-IOV VF kernel interface" style="rounded=1;whiteSpace=wrap;html=1;align=center;fontFamily=IntelOne Text;fillColor=#00285A;fontColor=#FFFFFF;strokeColor=#FFFFFF;" parent="1" vertex="1">
                    <mxGeometry x="160" y="435" width="390" height="30" as="geometry"/>
                </mxCell>
                <mxCell id="sw7YXdpIW-NHetmkRuGA-10" value="Node Exporter:&amp;nbsp; telemetry collector" style="rounded=1;whiteSpace=wrap;html=1;align=center;fontFamily=IntelOne Text;fillColor=#00285A;fontColor=#FFFFFF;strokeColor=#FFFFFF;" parent="1" vertex="1">
                    <mxGeometry x="25" y="213" width="270" height="33" as="geometry"/>
                </mxCell>
                <mxCell id="sw7YXdpIW-NHetmkRuGA-11" value="cAdvisor: CPU, memory telemetry&amp;nbsp;" style="rounded=1;whiteSpace=wrap;html=1;align=center;fontFamily=IntelOne Text;fillColor=#00285A;fontColor=#FFFFFF;strokeColor=#FFFFFF;" parent="1" vertex="1">
                    <mxGeometry x="305" y="213" width="255" height="33" as="geometry"/>
                </mxCell>
                <mxCell id="sw7YXdpIW-NHetmkRuGA-12" value="Prometheus: telemetry backend&amp;nbsp;" style="rounded=1;whiteSpace=wrap;html=1;align=center;fontFamily=IntelOne Text;fillColor=#00285A;fontColor=#FFFFFF;strokeColor=#FFFFFF;" parent="1" vertex="1">
                    <mxGeometry x="-240" y="258" width="255" height="33" as="geometry"/>
                </mxCell>
                <mxCell id="sw7YXdpIW-NHetmkRuGA-13" value="K8s control plane" style="rounded=1;whiteSpace=wrap;html=1;align=center;fontFamily=IntelOne Text;labelBackgroundColor=none;fillColor=#004A86;arcSize=11;fontColor=#FFFFFF;strokeColor=#FFFFFF;" parent="1" vertex="1">
                    <mxGeometry x="-380" y="350" width="120" height="133.5" as="geometry"/>
                </mxCell>
                <mxCell id="sw7YXdpIW-NHetmkRuGA-14" value="K8s node &lt;br&gt;&amp;nbsp; &lt;font style=&quot;font-size: 11px&quot;&gt;kube-proxy kubelet&amp;nbsp;&lt;/font&gt;" style="rounded=1;whiteSpace=wrap;html=1;align=left;fontFamily=IntelOne Text;verticalAlign=top;spacingTop=1;spacingLeft=5;labelBackgroundColor=none;fillColor=#004A86;arcSize=18;fontColor=#FFFFFF;strokeColor=#FFFFFF;" parent="1" vertex="1">
                    <mxGeometry x="-380" y="290" width="120" height="50" as="geometry"/>
                </mxCell>
                <mxCell id="sw7YXdpIW-NHetmkRuGA-15" value="StatsD exporter: StatsD metrics instrumented application" style="rounded=1;whiteSpace=wrap;html=1;align=center;fontFamily=IntelOne Text;fontColor=#FFFFFF;fillColor=#00285A;strokeColor=#FFFFFF;" parent="1" vertex="1">
                    <mxGeometry x="25" y="258" width="270" height="33" as="geometry"/>
                </mxCell>
                <mxCell id="sw7YXdpIW-NHetmkRuGA-16" value="Grafana: dashboard" style="rounded=1;whiteSpace=wrap;html=1;align=center;fontFamily=IntelOne Text;fillColor=#00285A;fontColor=#FFFFFF;strokeColor=#FFFFFF;" parent="1" vertex="1">
                    <mxGeometry x="305" y="258" width="255" height="33" as="geometry"/>
                </mxCell>
                <mxCell id="MRNIKnrCk8Wgc5EsPkIh-2" value="" style="shape=image;verticalLabelPosition=bottom;labelBackgroundColor=#ffffff;verticalAlign=top;aspect=fixed;imageAspect=0;image=data:image/png,iVBORw0KGgoAAAANSUhEUgAAAIoAAACJCAYAAADzE6DKAAAACXBIWXMAAC4jAAAuIwF4pT92AAAgAElEQVR4nO19CXwUVbb+d6uqu7PvK2sghF12EQQVWZK44sa4zIzb6Iwz7iCDPsdxeO/NokB0nHEdl1HfqDPjuKFICCKgGNkRkC0LIYTse6f3qrr/371VvSQE6O50JwH/H7+m09213Lr11TnnnnvOuYRSinMZhYVFaQAyKUX0pk0bE6xWRzohYpIgKAmUCgJAYwWBktN1garCTgjsgkDaXC7BSanj2BVXXN4EoJ1S0pKTM7whOzvbfi734zlHlMLCwsTCwvXXAcgFMBlAPIAEAMYwnM4BwEIp2ghBMSHYDKhfrlq16kgYztWnOOuJcumll4oXXHBBjMOhzCYE1wO4CUBkHzdrF6VYajQK26OiohxPPvmks4/b02OctUT5xc//Oyo6xjIeUH4MkHvCJDFCgc8B+jdA3VRQUNDcT9t4RpxVRFm7dt2YsrKyG0tLyxcQgkEAUvuB9PAHMoB6SnGMELIrN3f+x/n5uUX9v9le9HuiPP7440lWq+tmQuiTOjHOFdQC+C9KpS8XLsw7NmfOnH59I4R+0IZT4qGHll5gszk/IIT+9RwjCUMGgNcJkbd+8smn9/WD9pwW/VKiLF68eDggvg5gCoDYftCkcIMZu9sJUe9ftWrV7v7YwH5DlMLCwqRNmzZPstmcv9JHLz9U7LPbbX+++upr3s/Pn9/WX/qgXxBl8eJfPwqovwBIVp83pv+gBMDfCgpWrOgPLepzoixZsvS3lGJ5nzaif+NYXt78KXl5eX06tO4zotx33+PJJpPzfkrxZJ804OzCWqNRvOlPf/pTn6kiqbdP+Oqrr2V///2hXxuNuJJSDOit87IHwv1SVRVxcXEgREBMTDREUURERAQiIyPAnhtCAIvFCofDyf+2Wm2w2+3o6DBDEAQQQjyvXmm7quYPHDp66/6y+q2DMpPfTIgSN/TKiX3QqxJl6dKlaYqCTQBGh/tc7LrYjTQajZwEGRmZyMrKwqhRIzBsWPCmUE1NHY4ercDu3XtQV1cLWZbhdDqhKErYiDN4WI7z8kW3GSQBRGQkFcXbhyaJb4blZKdArxFlyZJll1JKXwXo8HCdg0kKdsPS0tKRnp6K9PR0jB8/HtnZw8J1StTXN+DgwUM4cqQE9fX1qKur44RhUioUoKqKq358jz1j0OAIRhJJADWIpNUg0Zsy403rwnZhXdArRFm8+JGHAfI/AKLDcXxGDofDgYEDB2HBgrkYMWIEYmNjYTL13vSPy+WC2dyB5uZmrFv3Bfbt28ulWU8Io8guXHLFjW3Dx06KFQUIBoFAFDhZYJSEDiKqjw2IM/01pBdyCoSVKJ9//rmpvLzij2Vl5Q+xc4XimG47w2AwICYmBjk5IzBmzBgMHz4M8fFxoThFj8Ha19LSisrK46isrMThw0e4pGFqitk4/lxjQkq6a8KFC+TMIdmRoijAIBIwicKIYhSJ9lkgVBSxPSFC+kWkiewJ5zWFjSiLFy8eAYhvAZgZyuOy5l544UxMmDCek4MRpr+DEeTw4RIcOHAAxcVboarKaQkTn5zmvOS6uwVRkpimgSgycghguzCyGLxEgSQyCUOriWicnB6D+nB1RViI8thjjyU6HDJj+JBQHZO1kxmNd9xxO6ZMmeTXk9nfwGwoJmlefOkVNDU2dmv8yi4HZi2805YycHikSABB0Egh6WqHaTKJGemSoH0mgEEEDJJw2KhKM+Pj0RKOyw45UdatWxe9dm3R0VBN4rnVTM7IkfjRouv7jXrpCSwWC/7+5v+h8tgxTn4PYSjF0LFT7Tkz8k2SIBAPOQROBE4KzUbpLFEM/DPY3zKgTkiOMR4MdZtDSpTCwsLYtWvX/5sQ5PX0WOzpM5kicPHFszF9+vlITU0JTSP7ERoaGnH06FFs3LgZ7R1WDB4/G+nZ50ESRa5u3BKDk0EUOGEEH6JwIrlVkcRVEPvdHGkQbouJED8M5ZWGjCgPPPBAnCSZ2PxEWiiON3nyZNxyy40hG2b2Z7Rbnfh8Xwd37jEysFGNKBEIbuNVlxyCPuJh3zFiiIIAiRGJfTYI3HsqipSRypYcI8XpAVMhQUg8s8uWLRsgSaZtoSBJZEQkFv1oESZNOi8kF3g24GCtEzKlYI8EUQkUZptQgIJCpQQKpWCJAoRSKCrhhFJVdmEqQAQIhEJVVCiiAEIJVJVGtlrl72RIC1KiUB2KLuixRbhmzReRLpf6DoCBPT0W09cLr7n6B0WSmlYZh2tt7OZCZdML7J9KoSjaCI853FQKThbV56Wo7DfNhlP4voCqaPsp2u9jRchvhCqWuMcS5ejRkv8CcEmw+7MLjYyMxHnnncftkYEDe236p0/hcKnYV2XF7uNW7mCSRE1AUJZiJDLJovLnmKkiEKo5oaimmphEIWxjEGiGA4GgUP7YMynEpBL7XYSQyyRLjEnMlURyvCfX2yOiLFmy9G5K8ZueHCMhIQH33vtLpKQk9+QwZxXsLhXv72xBo0WGUbc5CLvRojb6YRJC8OgXTdUwdQRGIpXyz9rv4Oxhf7q0TSEykiiMM4QTDJSMcqlYKYm4sSd9FLTqefjhpTMpxR97cnKr1Yprrrn6B0USht2VFtSanfwmM35oKkfjhaZitO8of4emipj6UfTfVI1MKryfqe/++vbsXTJKpGhd0aX33HPP2J60OSiiPPLIIymE4DkAPbrD1113LSZOnNCTQ5x1MNsVbCm38DvLbzI0QlAfcmihEMyIJbrtovlYVC5tdGJxmwQeu4URhxnEin5cRVVph8Xa8d5bb7g2FBWmRkXF/nn58uURwfZXwKqntLRsgKqCjdGnBXNC5h8ZNXIk5s67FKNGjQzmEGcnKLDzmAWbSs2wyQp3komq9j10+4TbI1ydcD2j3RxmkzB1I+u/i/DYIMynT/WteXyMIEB1OpwH9u0QSg/uletrTsSw/ta92PPb2sxFa9euezA/P3dXoH0YMFFefPGlBwEyPdibNWrUKNxzz929FvTTX/CXL+tQbXFx9zvzhTA1QUSNKIwICrNTVC8xVALIjDzMRoEWW6PpFwoFug0CLcqKSRlJJB3bv/hEPLBnmzshTuNZp6kOMnvduqJPBQETc3NzGwLpmoBUz/LlyyVKcU2wfc8udu7cS39wJPm2vAOV7S5d3VDNloDbzoCmLsBUh26PuL9zqyHPftq+XNXowoeNh+oqSx3v/Pm30ft2FvuTNZn55ZcbZwd6DQERpbXVvAhATqAnYWChhNPPPx+jRgW1+1kLh0zxRUk7v6X8xgO6EepjyOoGKSeNPkNOdYeb5iMh3GZxG7aa8SpAdlpR/l0xitf+00RBib9ebLvdGfAIyG8X/n33Pb7IaHT+X6AOHHb8qKho/OjGG3De+HFhn/V1h0D2B3x33IrV37eixuLibnimRtyTfBLR3tkw16DP5whECyPgLnlB/6y77SVB86kwf8ugRBMiHA34+P1/oqWlKZhrlp1O4x1//evv/8/fHfwiyuLFS68C8IluegXUIpPJhAcfvB8ZGemB7BYUWjrqsbm8EPljFsFkCNrA7zFYn763vQlF5WZPwBG7+YwcbjIYdJKIPjEmou4f0Yiifc/md5jJGhMhYkCCEeMHRiEhSpMcFRWVeO2119HR0RHMw0EFgeatXLnSr2T5Mz7e69evNwGelIqAWzN69KheIQnDa8VP441tf0FFU9/VsWFP0t4qG9aWmXlvqe7hKlc1PsNfCo/vxGN/UJ/hrr6frKpIiTFg3ph4zM6J9ZCEIStrCK6//no+kgwCRFXJ48uWLfMrZfeMRFEUep5euShgsLmbWbNmBdnlgeO4+ThPwZCp0mvn7Ar2JL27p5mPWqjPjac6WWR4SUJ13wjVbRNVdTvetH0csorhySZcNiEByTHdD1DZvFh2dtDx6pe4XOp8fzYUf/e73512g+eff/FRQsiMQFtgkCQsXLiQR6OFE8zgO95cgvd2vYhDDfv5Dfm2bCNcTjsGxA1CpCkmrOf3RWmDHc99XYdDzQ6IjAx8ToZ4xbCuHojHU+IV0AQejzyykk2YPjQGc0bFYezAKG6nnA4pKSnYtWsPKA1cslBKZxNC/zVixIj20213RolCCPlFoCdnjp+8/HzMmXNRoLsGjIPV2/Gbwp9jY3khFFXmutqqOPDed29i2Yf3oNXSGPY2MHxxoA2/WnMc2+ptXBq4mMXoUTleiaH4fOerYtjoKCvehDtmpOCGqUkYPygKcZH+jWKYRLnsssv8VkF8xllRILucyMgckD5q7IRFZ9rntA63hx9e+gQLz/Tr7D6NSE9Jxdy5QU8oB4SPDrwFlaqcIL6GuQABtdZ6fL7vQ9w84+6wtqGswY7HttQiwShoKoYZrJTP42qqhFAeX6ISTbrw+T9d/TARwgKnF45PxKQhUUG3Ye7ci7Ft2zbU1taccmTJ+of9FhUTR6dcMLt1wvkXSiajMVaAfC2AZ053/FNKFH0+5+HAm0zw81/cFfhuQaDw4Ds41Lj3lDtKRMCH372HY3WHw9YGRoyXdjUhyiBoDjNfCeLjOOOEcRutzH6jKpwKxdBEE+6ckdojkrhx9913QjIYOj0w3A5SZMQlJDkHZ4+2TJo5j153xwOOsedflEgpYmWXi20zsa7j9EFn3UoUFoykqlipl930G6xRs2ZdiMTEgHYLEBSH6nbiowN/x+HGvdxGOd1gzCrb8cgH92PByHxcd/4tSInLCFlLmjtkPLetARurLDwk0cCboVkfgj6Rx+wS5prXfiK8vWmREubnxGFsZiQSIyUe1hgKJCcn4Wd33o7XX/87YuKTEZuSQSNiE0nG4GxHQmKKISIyUpAkgdn7EYrLxfJT9QlHEktV56MWi/HR6Gh0W8GyWz/KkiVL5lEqrA+07Uz8M5/JkCGDQ3Lh3aG0cS/+sPk+bvQx201WKCjzWvKILy3yS1G0camq/85mWV2yCoOi4PW7PkB6Qo+D8bCryorbP6uEUyCI4CQhnvhVpquZg4070qD7SVh1wjgjLhwcjYUTExFqnyC7TqtTRYcT+O5YG5zUBIG6IIjgCWNMvYmi5rxjgdpGSXPq8fZKBCaJgEh0Ylq0sVsR3a1EoVS4LZjGslzf8EWoaZJj9aE3uAtcCNClIwoinJTgjc0v4NGrf9+jllS1OvHLdVWw6ETgqoXFrTKbhM/DaHGuXI4QzZV957QUTB0UhcTo0BeQOFxnw9FGJ9qtMqwOFRFGASbRAcImGqkWNcfFAXfiePutq+krQmSmxh3dneOkVq9evYml3v000MYyK3rBgvlhjJon+Hj/i/i+cTs3VAMF6yjm9dxc+jXmHt6E6aOCN7Zf2dOMahflEoQRQ2YeVB/BLOqkYfM0THQ8Oi8Tkwb13AbxRatFxoEaGw7V2eGStcBst8QAdafeEo+/BvpnqrsUqE4Y6nnxbW6vB+5PAzq6nu8kohiNjjMOlbqCJWjPmzcXkydPDGVf6KDYW/MVCsvewZGm/b5eiaDgUGQs++BRXDn+Cvxoxi0YnOq/s6rVquBf37fgLwdaECkQPWaV8v8F/W+nCgyKNSBveCwmp0ViyuBofgN7gnabwsMmm8wu1HfIONbsQItV5upE0nORBZHoE4nwRMYJbiHS9Z15gwWqvbN2czUtQCEUUof8D8RIC7s29ySiFBYWXRnQbWTZbUOzcOWVl/eoM06FXSc24OXdv9UiMIjWGT0BP4Yg4IN9n6HowAa8dPsryEofccYj1ptduOXDY/jG7EKEQLifhI9iiDYXw2JWEwjwszFJuHVqIhKieq5i9lRasLPKhooWB1cpBo+NQWASiceG95DB52+4pYQegM1DXfQZabejzyNdQDz7szUEHC41x2QQSnzb0t3VBBSbyJw8zLEmSeEp3vRp6WsQBBFUoeghRzqBSaZ2lx3//PY9LFt4+vhwp6zi2vfKsdWpcsOVhRwyCaLl31CeZXXrwGg8cHE60uKCT5p3V3v69LtWrClpg1OlmlEsEJhO4Z31vdm+B6K6pODfu0ULyEkSpvNx+CuCaqEkpybKAw/8V6okIaAZvOiYGAwdOjSQXfwCc0evOfI6aiyVYaubzG7KR7s+wbVTrsXIweNOud2L2xrxjVNBtD5UUfUUPLtKMVQi+M2UVPx0WvDhw2abjMp2GVtKzNh+ogNtLhXRBgEGIvhIB++7HujGDVVBD3xz/+exQ6gWhU8JfFwIujHrIY3bAO98EqcToyIMWOPbxk5EkSSZ6Y/EQC5y0MCBYckLZu74Rltd4HENAcJFCDbsXnNKory3pxlP7Wv2kIQhXiL4ycgEzMmMwoTMSAyIDUya1re7UFxlwdFWJ2raXTja5kCHXeHGsVEQNOlB3R5dogVg+6gH6vP4e4xWfW5J8PykchK4hYl7FlvwRlR6bRg96o6dTwurVKd2fTg9V7h06VJWDekneqiv3xg5MkwRa0QPGA7P0X1Pw4fOXcH8Enf9+xjebLAgWtS8rvEiwYhoCW/mDsKIdP/jXdixmqwydlXZ8P6+ZnzWaEOSQeC2DvO1RApAhCB4buJJKkGFRzJwiaF7egWfbTzbu6Pj3KMat/TwtWFol209x9D3IbjAK4I0eIgiy7KBECmgWWJWIGbgwJ47r7oFj8Vwwa5YYRK8Fb3Yc2JXnFpWnTu/RenscGOfvc43ClXWfmfuc4PgDStlnWh12uFSXJ1a0GaVcf9nVXi70cpJYlVU3DwgBotGx2PhmHjun/AHLhfFrioLPqvowPuH23DQqSDRICBJJPpssS4v3eka+hyROw9QcNsRwikIBO9NV90kItSjetySh+qs4jaL6P7N7VNxD5W9agsAs+4Neul1Dg9RBEEYTSkCmpNn8SbDh4en2LQgSJg16DIMix+Nz468ATPt4BeWHj0Y87Nu4Dm50EceHqNNn0uh7jwY1ZtExXrAKJqw8gvv3FdCZDwWz/kVRmZ6i1Syp/++NSfwn3obogUCi6yiYGoqfj41GdER/gnbJrOM54rrsa7RhuoOF467VEQJApIN2nCWx8zqgxa3yqBu+0GAx2Zwm++qThwRXQjDrl2fDNVI4m2D+0+PTeNWFV2MWdUtVdxSS9WO1WGXZ8dESJ4ypZL3nMITgdxIJk2mTZvGQx3DAYEIGJU6HTkp01BU+i4ozPzyEyLTMDfnhqDPuHK9lyjRETG4YbbXt8g66X821+GrVjuuyIzCzMFRyB8QgzEDIk/pcme2xbF2F3aesGB3ixP7am3Y1urgHiu3apDcN5PoZNazPRVoWaRuD6nso/fZAyASt0fVW9lAcGcQcl8I8bFJvLaIWzUR6vbveMmidhkSw2fkpLqH0txQJo8D6EwUPRwuQEcIwYIF8wLbJSj0TnlTWaZ4qKiaO9J235SNxFNElIGrFBXrD7Xj3eMdONpkx642F6zQbizP4SInj9PcUWySZ9Si+WA8EW566jHVUzeg/yb4qhjiM6wlnlRkL5mIdwisbSjoHlkf973+7rV39OwAKujt1NSQQshcAKzGCg9o4r3hdLL1+Pw3G9nBU1JTEB8fH9RNCQecsh3FJWvR3FGPiYNnYniG/6UzWEe98FU9xsUYcdeFKdyh1R2Yq7y41Ixl2xuwz+ziq066J4wJSCcD86Rz6O+yfjNUX7cYJZ74Wko6E8M9siE+EgDe0TAIcd94/Xtf5xuoR+16wy99X76ufHcaiHe47JBxoUnCWnhVDwk4sDUzI52XBO8P2FW5Ga8UP4U6az2oKsK243nMSL8A98//b7/CClhX3TQ1qVtnGSNHSbMDr3/bgJePmdGhao9+ICMy902UfewMJnUUdCYHdPXiefD1ISv7Ttadce4YF1F3w2uFdjTHH081FdwpKwKf22JFdrjxrcq6FGPtIApRCXU47RIrTcoqKjglTUkRVYEkacFU7e2t86ZMGOslCiG4KpD7zTqJlQsPl30SCL6v2YYVm5eBUgkRYgT3lkpGA75r3I8l/7kTf7z2JQxIOH1xSnYD3CRhca8baqw43OhESbsTtR0uHGxxaAThhUkIv1O+fuJESUCKwUsbpoLSIw1eqUGBpCiJT+fz2WQCPjROjTFwn4mBf8e8r0CKSeRSSdBTO2KNol7YTyM0i1CLNQmez+xeRBoILwbojsXVarwJmrSBVuLrq00b8e22rboqolRVFdVht3UiO5vYdbmcHlOYEHJ++7VXC3PmzFGloqIiZp8EFBvACt9kZ2eH8n4Hje3HN0IUDJrYpO7nkuXIiGi2t+H7ql1nJAr0ibdP97bC4lC42/w8o4gJqZFIGBKDYSkRHlqwp3LikCitPslZhKGDMrHxizZOhtOFwEpSJ6k64PPPP8+YM2dOtaSqasCLR7Nyniyaqj/A4jxN8Dh7+FX/UjdYIPMtF5y7dVqys7O4NNKJ4i/iHQ6FOcqqBUoJc9kHpEMkSexH9V5/WAnvwYJpAYMU8IRllCAI/OlhQ/yEQMpfaGEF4Vutoi/ANNbBGitKGxz43i7zxKvMCJHbEcyGSDSJiDKKiIsUuPGZHmfgdkiE7qGVuqSHEr3idH9DzqhR2LVzRyDBZdEA5a53VsYiLpD5HUaUrKzQzxb3JdiNHTsgir9mtrvwYakZX1d2YF2VBXVOhT1OXicG3B4pghyWd0MJ0iIFxEgC4iMkxEWIiDEJSIoxIBoEI2MkHjuSEW3g52HpoZFGgvgwhESeCdnDs7Bj+7ZAiMKs7yHLly8XpE2bNgXsDAln8HRfIzXOgJ9PScKt5yWgzaFgc3kHlmypxXFZL8nogxJZc1KUmN1eEifvWgM0bkURgnheUBiIYgWEmQoQBU4cFkbA3DVpRhEjYkwYGm9AbIRW3354agT/OyU2tAtCZGRkBJGnTFOqq6sFyeGwd+NHPD0Mht55GlhMisrziE9yNXEjVZv1Pb3nlh2DhSyAzxJLXX7Tlo3jsT2kcx9EsNldg4BFExKRNyIOz31Vh3eqO1BpV2FRu5yTeN8EPeDaqKsg5pRjlZOcLq3UlkWhfOTQbtdUVT2RcajFAalKG1HwigfQK1TrLv7s+AgeJT86zcR9KxmJJsSYRKTHSYiPFPVhsvv8WmPcqs9XAxok6Yz9dXL/adqGLF78CFsA8jl/d2RW86pVT4ctos1zHtWFtaVvY2/916huPwqn4uJeRKMQhbSoIdqMKCWoNZ+A2W7uNl2DzRwnR6YhxhjPt2e3YH/NIV60l03+icSArMQhWDg2F9dd7F88eUWjA9/WWbGl3o7DDQ7sa7KjlsVB6jPCzCdigpa+4SWN9hL1lA53OgdP72CpmGwfvU6KoKd2GPSyogLcNVM0nwmvqwItHJJAK5URIRFEG0X+NyMQW0CBvbPfo4xaTG2kUQtj2LNrJ0/jcNisVHE5CCuTbrd2sHBOWZGdduZ1c9qshKoytVmtMbLL9Y1dUBew4bGJkMAkSrhJAt2l3GSrRWX7Eb1imeamdshWVLQe7pTXc6qRD+vYeks9atvreWlwRiTiE2bBwhgO1B7B7EH+F2vISjHx1016nBNLy/jHtibctq0eVPBxs2t1hTXnmTvuxf23Lm18E9gF4lO0zycWh+iEYxJPJO4CPN6a+KK+rUvVotnMDq2QoM1J+W9tok5IHogNpAyboMXeioT4rtRhkIgkCiSGkdKoLeviXvrFGU2NYYox/AGBdeytF6SA3jsGn8xKx8KMKKQbBNj0WmyeCgbESyKiFaP2qgsPubQ8HF/4ksdNONLl0RC7MR6I99TacfU9BP0/4kNgD2n187i31whKmLAjAYuGH1qhPr8hEFw1KYm/vj3WgY8Pm/HZ0TaUuFTu3jd2kS6ee4jON03zK5OTCEF8+t59C3y/840I9J2ohC8Z9DkloiU5eb7TNtLP6yaKfhACZNmNCFyHsDV0/j9OjxlDYzB9cDSeVNNR1erCpmNsuG3FMbMTZlnVZ3114pCTb7xb0nStp9KJJD6/+W7jvvmdCaYTgXjJQXx2cEs4NwR4SSOwuRASRJ1Zu93WOzShgEtxwCazyDaRG54iQjdcZHM2VocVTpcCp9xtXnaPwEYdzCE3IsXEXz+bqh1tzzELVpeb8e3xDrS6VJ4bbCKCj02CLu/dqx33NgK6EoN4//dIGeLZX9AZ4vnM3gWtmLGuajxqh29KVa6tet/r4yfYRN/Vo+7GnOGLIEHClopPsKnyM9CTMmYDh0JVZMel44lFK2B32pAe03uri00aGo2xAyNR1ZqIrRUd+KqiA4faHTAxC1LXDR6S+Lyoj6TxvrSQBLf0cUsbj8HsUUPUR8f4SJ1uJBZ8CcYj9Um5wQG53xKFNTQ1ehBSMYh/LlTeg2Ye9txGYl3YZm/FyIy+qXnLFo4cnmLir5unJWPz4XY8v0OrDCX63EBfdDJWfVWVz1duCePbRV5yEa/hTDrvc5Lacv+uiRUri0yQJMnYqiiBrSjGFoKOje292mjMYeaUbSGbAGTi9YSlDaoq8yDuvsbFo+L4q7LJgap2F8qbHChvsqPOLMPB/D2Cjz2ih1v62iKkq7SAVyXBl0xs+C74EIy4jWC38duZNLrxwuPXJVl2OQIZybBtWV3T3iSKS7bD6jopwb5HYF7dsuPfI2doOBLrg8OQZBN/XTgsRlstQ6U42uTCv3c1otmmeHwq8B3ZeDyybm+Tz413qxCWSOZDBL6d7sxzlw8RPNt6o/f40nVQS9LSIAv5+bmnrQbYFezkJSVlvdqBdtkKe4iJEkisSl+ASRGTJGB0ugmP5w/EVWPikRZjQITkWQKss21BOr/7qhT4Sgyfvz3H8dnH8zU3cHlIJUt6opJvko+/PcwkSm/Cpdj5CCiUYM/TiZbjGD1sSr8lixvsaZ87Jp6/qpqd2HPCiv0nrLDJFIJB87x2cpz5DrV9DF+3Pupkk/hsh07+HA2U8CXmFEaUJj3u129lXVrauxLFJltgdZlDekzWOXUtNSE9Zm9gUJIRAxINmDsqltdraTTLONrswIkWp6caAvEVM08IEP8AABYkSURBVORkB15XA9irxrwjK03twEUoqqDFoxDWW1Y9h8OvDm5pae5Vg9apOuBQrCE9Jps7Kasv8WPL/gdmjLNAKvZi9fEnDNaqOVU2OXkp09o2Jxwuqq/z03k0w20UPdCKdLFxPO+CFs0vENIhCNpyuBIhqiXQhZRZhaXW1rZeI4pFtqBDMcNI/FmOxn8ofVgKPRwYkmzkr2aLjIpGJyqb7LA4qFauy0ftuFOeifufOzSB/++WPnyjdqOqVDNlI+Tl5TWzSdlA2u1wOFFTW9trHRAjRSNKiOKOslCBPVEHW0/02jX0JpKiJUweEoWrJyfiionxSIwyaGtpnzRF4Gv8CtrQubP73wqYmGni8eNsDeQ6WO5HxdGKQCO6g0Z28iQ8e1khHr3wL5iTdQ0yogcDVIHcw1GLS5E9QU3nGtxL3rISYXPHxMJeUYyDX61G5f5imBtrWOazXRQlrwrqFAbhGR3tiYsDEyQeA/ZdwP8l4Bgry8uPwmKxIi7Or1U8egyjFImc1Cn8xZxvTdZarD3wD6w/+hlIkHNALtkJu8OK6Mj+klEQHlitNhw5sBfNTU2oohSHtDLnYnLaAHXslBkNA7Jy0kSqaMqIeH0qIhE+djeISxRZFr4JpIV8xFBXx9ctDjdYuOLX5R+iznzMY1Mw0mTGDcMdM36DBy9Y7kmfDBy9kwDf12DL9LW2tHruHaWUWMxthmOlB4Q1772avu7fr9scDquNqopWXNvt7pdEj6bhy7BcdtmC9sLConu18Hz/4HQ6eLBuuCPyWaTb23v/iPeP/BmtHfVIisxAQqR3Em9gYjbmDb8SUVIknC7m9q7VhCjtXAaCUtLpO600FcFl4/MQGxXOkux9j/r6Omze/NVJ0ffuJXBbmxoMu4s3GWoqyy2UKva4uDghOirKmRQlLHVv6+s7YbXvn/L3qoxGA9atK8LFF89CoKGUgYGizVkHoxiDb2vXY1fdFmTFjcWQuFEYmTwe4zJnIj46BddMvBOXj70FZY0HUVyxEbsrvkVV+wlPaaruoKjqSdWWzkWUl1fw7M5TQdAJVHPieHR1VSWKN31BU9PSVjz84L2ePXyIorwKiH4ThZGjvb0dFRXHMWxY+KQKu8019mrEGRJ5OI1TteNQ424cbNiN1UecGByVhZ/PWI702EGIMERjTOZk/sJMoK2jEauKfofdVXvgYmv50M5PFAvgdsih9fj2Rxw6dNivyET3PI/dZiXVVRV/8P3NIwocbMwL8m0g18mCrCsrK8PaNYTnNUbAodhP+s0gGPnycL8tvBPPbnocGw5/BKfLG1gVH5OCZfl/wC8vfghTBkyELDu4FHFDpipsYQha6m84caI60BYdX7FihcX3Cw9R0tLSrJTSLwM5mmbU1oe1W5gH9feXfojLh/4EDsXGb26n31niNRGxt347/r7zzyjY8Bhkn5vPRjSXT7wBT15bgBd/8gaGxKZ5htXs3XGOq56KimOwWi1+bNkJh7p+4VlTcM6cOXT9+iJGlpsB4vd402azYfr088OYwsFyVuIxNn0Grh55F1JMaTzNQlZlOFxWLiG0sAmBT81Xm0/gX7tex/ayTTjRVoUI0YS4iHhEGKOQHJuGKyZdg5Epw5ASnQSjYMB5gyZgcPK5mfnocDjw7rtsbeSWgILiKcV/8vNzOy3Dc9J6PYsXLz0SyGrpbP+77roT48aN9bshgaDRUgU2bEuN7WwH2ZwdON5Wgje3r0BpaxkMMGkF8PT1efhaPeyzS0VWUg4uHjYbV06+GRGmzgM75ksxSAFV/Thr8M2WYvzngw/R3ZpMp0Ne3oLr8vJyP/TdpLvhSkDrqrFGbNnyLRQldO51Xxxp3IX/3nIr3tj+ODocLZ5fIo0xGJk6Gb/NfR1XDr+WZ9epXfwiWtgfQVlTKV7b+iZ+9NJl2Hq4s3Y9V0nCSrseOHgoGO85s1XLu37Z3XK22WVl5XP9PSoTaSeqTmDa+VMQExP6ScLKtoPYWf81jluO4uNDLyNWTMCA2CwYRK2kiyRImDhoNuYMvxJGClS1VcHisvJ4E3eZTbcfhWUVrv1+HWwdbUiOSYFRNMBo6PvyYuFAdXUNPvzw42DWT2rJyhr82MiRIzsx7CSilJWVtpaVlf8ykCMzg/Lw4RJMmDAeERGhzfvZ11CM0pY9ECDCKEZgb/02bK/agL0136C+oxqxxjjERSQhwhiNcQOnY9awuchKzEZiRCJ3wDVZm7VMFc9iAgJ2Ve3Hp3tWo2j/esQZozEic2RI29zXYNLkhRde4vZjoAl7lJJ77r//3t1dvz+JKCNGjKgrLCy6kEkWfw/OGsMadfz4CW7YhhIlzbtxpMmn3ZTA6rKgwVKDQ417sObwv9DeXoeMuCxEGCIRExGPYSkjMXXobOSPvx6ZUanYU/0dFD4BqOqlMQWeq9tut2BQXAam58zsVze6p9i6dTt27Nh5ymVtT4N1zzyzYml3P5/qSK8F01bmU6mtCW34wbiUGRiTfD4MMMClOnn5S18YRSPWVqzGrz+9BX/d9FscbTjQ6fdLxy/ESzf9HT+dfhvGpY2GrHiHzizouNUR8NCx36OkpCTI1F+y6lS/nIIoyhaAfh/oaZjIO14V2hiPrMSxuGfqH7B45l8xb9B1UNWTPamsxr1KBBRXfYU/bViG97a+AJvDGzqZHJeJG2f8DMuvXYFfXfQrOJwdHl8KPcdyqdmM/rFjQTlBdxuNwinDTbpdzpbhoYeW3ioIeCXQQoCZmZlYsuShYMRet2C+EpPBu3Ajm0UuPr4OpY37UNl2FG22VsgK8ay2wZe1V7T37IQcXDIiHxfmzEO0KRZGSbsUs6UVW0u+wvd1pbBazHjsut+GpK19DZdLxgcffITi4uJA+99JKfnRM888/fGpNjglUaAtuf8mq+oQyBlZBaMpkyfj1tt+EpJue2XHf2Fg3AjMHnQl4qM6L/ZtdbSj6Mj7+Od3L8BJRRi5L8XrR2GlU5xOGQYqYmz6REwfOhNXTb0Rouj1J7Ll+rtWWzpb8dZb/+DL7huNAQ/59xYUrDhtgtNpe8hoFO4L9IyMyfv278e2bTsC3bVbNNtrsabsTTyx6cd4d/dTsNhbPZtFmeJw1bjb8JdrPsXlw6+CzGyYLr4USRD5QpG7q/fg1eJX8MT7i+FweuNozhWS7N37Pfbs2RMMSZittvZM25y2l5566ikzpdgc6ImZk2fTpk1oawsot6xbtLvaeGI6y+tZX/Uxnvrql6hpPwqHrE3+sYUpk2MycOes3+DtWzZgbPJ4CETktdtop1IOrJ68gm+P7UDuitl4Yc0f0WptPSdCIdl87scfn1JrnBG5ubkbz7RNdw63TtiwYQNRVXrSOrhnQltbG5+QGjduHEym4LyfsuLAuvJ34VK1mWPmRGt3tuGLsv/w0uaH6nbyMIH06IGQRCMk0YDZ2XmYOngGhiflICEiAbVtNbA6HZ7SXsyPohIJu08cwDvf/AMlVQewYEJ+UO3rL/hy40bs3bsvyJEO/Vdu7vynk5OTT+vnPyNRFAUVZWVlNwa6KCVTQYwsbAGoMWNG+7FHd8eQcKB+K1c/7uVFCHecibC4zKgxH8fOqq/x6cF30NBSgTEZ02CUIpAUnYbstLGYPuxiXD7uOrS3VuN4WxW3WdyeWq1kBEFV03HcOeeuoNrXH8D6+NW/vR5sJazvDAbx1htvvPGMov+MRBkxYrh97dr1bFX5oFbAbm5uwYwZF5w2wup0mDHoMphghM1lQZu9UR/W6hpTD21k5V5Lmg/js31vwURMGJKUDYOoSTE2lzNj5FwsGJ0Piaqoaj6OdodFc/HzWvpO3DP3F0G1ra/RYbHgL8+9wMMIgiAKC53935Urn97gx7anH/X4YvHipVsAXBhEazBp0iT89Ke39GjIzIbJpc178NGB13CoeT9EYoKgLy6pUG3xGzYvySTY6NRJmJI5DfnjbkBkROcI++8rd+Htr17DFyXfgAoSFBfFxkeLEB8dkMDsc7BJWBZCsHPXrmCLgewoKFjhtxv9jBLFC/p+aWn5VEL8d+1Dd+9XV1fz9I70tHQkJPhfKLvGfBSNlhOINSZwlZIWMxgzh1yGkYnjkR49AC7ZgQ6nWYt71YOnmUpp6KjD3trvsHrfv1BWdwgRggmRpmjuxU1PHIi5512GRdMWYVLmGF6eKysuExkpZ09MCisS8PJLr+DAgQNBZR9QirK8vLyLmLbwdx+/JQrDY489luhwyPsDXd/HDUmU8PDiB5GZeeZVuRi2Vq3B63v+FyMTpmDKgEswJeOSk3wppfXf4cP9b2J/7S5YXA6IkFhuGJcybJl+JnGsTiciYcT0rNm4cdqPkTPQ/2Xk+iP+9sprOHjopCC0AKDeXVCw6tVA9ghAogDz58+3r127bhwhxP8Kvj5gzi02lGOzzP7gYONOHGzcjnprDQ6wWePqzYiVYjAowRtXlRSdgWmDLsK0wRdBddpQ2ngIhEj68rZaWgYrbMgM2fLmchSXboHV3IRxAyeCZcqdbThypARFResDDkbygTk3N3fpiBHZrX7vEShRoMUB0bKy8puDayN47MqInBwkJZ3ZJiht3suJwpxirF/scge2n9iEhpZjyE6dyOd4eNlv0YCEqBRMy7oUwxOGY1dVMc9TZpWqVZ/FFplasjmd2FG1F+8VvwVLawPGDZ181gQv1dbW4fnnX4Isu4Ku90sIffXee3/5TsD7BcPMxYsfWUopeYIQBJVPym7gtGlTMW/+XGRkpHe7DUuleHffKnxd9akWS6IH0LFV0l2Kwp16A2OyMClzFiYNmInhyeNgMmjVDuxOC8obDqG8qRTFZZuws3I7X3OQjXTY/iyAiRm+DtmF1MgU/GjSNfjpvJ8Hcym9AlY5Yu3addi+fTufIgmSJG2AurygYNUzfmx7EoIiCsOSJb++kVL6d7YQRVAH0D24Dz/8YLfZhjaXGc9vW4rS1u89K3ZCJ4o3ak0b9UAVIBEJMwdcjFsvXIoIn0lEpu4sdjNeXPe/+KL8K6iKqC2soC/Xr/DleIz46jdndE72GV599Q1uuPYAKiHkqlWrnl4T7CGCHq+uWvX0PwG83ZPWszC999//4JRxnUTTF2cESztlaRdFFYV4YvXdKK8/AKseZsDUVmxkPH69cAXeu+tjTBwwno8UGIG8awX3zxxkNhu8Zk0hn8PpIYp7QhIEY6P4Ii8vd3VhYdEilhYU7DFYtmHViRpkDx/eKYySzeVsPPYBOuR274rPWqhepzkcbZVw7TuRCGiyNWPTkc9xuG4fqCJjYMJQj9EaaYrBRSPn8gLENms7qltPQFYJD7O8YfJViDBFndS+vgLzuP7jH+9hy5YtQU30+SIvb8EjI0Zk90gk9Ygo4PXcSva2tLRcB5CgVBDTtw319dj67TY0NDRg0OBBiIyI4DXbisrfhovKfhMFer0gmVLUmGuxo7IYGw8XotXSBLYUTUJ0CiKNkRg1YBzmjcvDovNvRKIpGk2t9ZiVMxMJsf1jldItW4rxxhtvoqamJpjgaF80qKrwWF7evL8nJ/fs2oK2UXyxePGvLwHoaiA449YXKSmpuPPO2xCZIuD+NfMQLSXwGJPT2ShU1b7jw2F34BLVFneS9SAmq8OBKCLhtpn34IqJ1yMyovfq5PqL+voGrF79Gfbt2xeKwK96QoSbVq16KqDsz1MhJESBlyzre1pfn1n1SUlJGDctG0XCM4Bq5CTpCVHYu0uBtp0iY3jyKFw0bBZumnU7BDG06/YFiy+/3Iyvv/4ajY2NPZUiDA5BoLNWrly5M1TtCxlRwMmybDqgfg2EZhmMiCQV5gnfwSk4QkcUFomvEO6AYyml/3PVcpw/8uJQNDdobNy4GatXfxpCo5q+VVCw8rZQtjGkRGF4/vkX7ywrK385FCt3sKZJUQpcA+qhJprhimmFU1XBqkj1lCisfDgjC6twOS51DK6Zdi2unOp3dbIegY3yKioqcfToUV6SoqysLJQLZv3rV7+65/4RI7JDWj0g5ESBJlmmAeo3oZIsfLKPFfw3uKCedwytkQ0gKukxUZjXVpbZSqUEF+bMwqqbng5Jc8+El19+FUeOHOmJ86w7WCkVpj3zzFMHw9HmsASMFhQ8tUMQ6BUsHCUkByS6r8MpQdqTg9SWoRAUiVcwCNGCGzx0MlxgbbfZ7NixYxcee+wJHDx4kH8XQpJYAGVGuEiCcBGFYeXKlUWUkgWsIEEoj6vKKuTvBiJt73Qk1gxHpDMaCpFBu67aGCCa2+rR1tEUyqZ6sH37TqxYUYDXXnudr6AWqlQWn2qFfy4oKNgXqoN2h7BOnz7zzNO7Xnrpb5cfOXL4ZSC4GeeTwEpbSiocLJC+IhkxJxIQE+OEw2SGEm2DNaoFNvgdZuGBw+WAw9nzMl1MnbA87JKSIzhxooZXzzSbzfz7yMjQVt4GsNNkMhbcdded/wn1gbsiLDZKd1i8+Ne/B+gDrBB1uM7BLkWgAgyJLthimlBvaIAqumAnVjhV3ZZhtko3NkpGdDKevXkVhmYGtioYy7lmk3aMHAcPHtLnZGjQoZ9+wkEIlq9ateKP4TyJL3qNKNDIkg+obwIkaJe/X9C9tTw8IcoGs7ENqkGGYnDCIrajAS18tXU26lFkLWEswRCD535cgNGDT7/QU0eHhUsJVmmxra2VlyarqqriUoP5P0LgA/EHKwsKuk8mDxd6lSgMS5cuu0NR1Nd79aR62W5mx7AcIQUqhEiXNpkoWiFD5ZLnx/PvQM7AsdoK7PX1aGsze/5m5a2qq6v4qIrF5bJhtaoXDuzltaDfXrAg/57LLpsX/mrQPuh1ojAUFq47f+3aotsJQS4L9O/1BsC7woRvYiGfUdb7o+vNd5fW7CM0qCreys/P/Wd+/oLtfdGEPiGKG0uXLo2WZfoyIeTHfdaI/g+nqirnP/tswd6+bGmfEgXcfb1R+uSTz9iiDdeFc7h+FoIFG/1z1aqnb+kPTe9zorixZMmSqykljwNk2v8nDI4RQu5bterpT/tBWzj6DVHAbZdC6fDhkvnHjlXcQim5RV9C5ocC5vxZbTIZN8yZc8mHeXm5df3puvsVUbpi8eKlPwPwewDdR2CfG3BQSj565pmnb+rPV9OvRXxBwYrXXE4jmzP6QH/iziVYCSEfUUrvXrjw8n5hh5wO/VqiuLF8+fKItjZbNiBfDzA7Bmd1FWFK8TEgPEaIq6KgoMDmxy59jrOCKL4oLS1LLisru27t2rXZgDiJEIzXU1z7a9U+Vm67jBC6JTc39yCl2JCfn3vWraN71hGlK9atW5daWLj+AlWlrNLCRYRgdj9o1nFK8ZogqKxA7qFVq1Yd6Qdt6hHOeqK4sXz5cmZvSc3NzcMkyXgXpbgKwKjeOj8h2K+qWE8IKaTUtSkhIcHx5JNPhi/IpZdxzhDlVHj44UeuBcg1hCCHUqSxRchZio/+In7aO6zQm6Ib1IqWnokWQugeSrE9Nzf38/z83GN9c4W9g3OeKL5Yvny51NZmHk6IOJBSNZNStnYcGUwIPWVcDuUVi2ktIcRMiFqnqoKVUte+Z599tqNPLqIvAOD/AbvC2A6b0U+BAAAAAElFTkSuQmCC;fontColor=#FFFFFF;strokeColor=#FFFFFF;" parent="1" vertex="1">
                    <mxGeometry x="-330.08" y="197" width="20.15" height="20" as="geometry"/>
                </mxCell>
                <mxCell id="-8ghxre0uZR9m8sW8DLG-2" value="&lt;p class=&quot;p1&quot; style=&quot;margin: 0px ; font-stretch: normal ; line-height: normal&quot;&gt;&lt;font style=&quot;font-size: 18px&quot;&gt;Edge Node Component&lt;/font&gt;&lt;/p&gt;" style="text;html=1;align=left;verticalAlign=middle;whiteSpace=wrap;rounded=0;fontColor=#262626;fontFamily=IntelOne Text;" parent="1" vertex="1">
                    <mxGeometry x="-384" y="124" width="210" height="20" as="geometry"/>
                </mxCell>
            </root>
        </mxGraphModel>
    </diagram>
</mxfile>